%TF.GenerationSoftware,KiCad,Pcbnew,7.0.5*%
%TF.CreationDate,2024-01-26T21:50:59+01:00*%
%TF.ProjectId,Project,50726f6a-6563-4742-9e6b-696361645f70,rev?*%
%TF.SameCoordinates,Original*%
%TF.FileFunction,Soldermask,Top*%
%TF.FilePolarity,Negative*%
%FSLAX46Y46*%
G04 Gerber Fmt 4.6, Leading zero omitted, Abs format (unit mm)*
G04 Created by KiCad (PCBNEW 7.0.5) date 2024-01-26 21:50:59*
%MOMM*%
%LPD*%
G01*
G04 APERTURE LIST*
G04 Aperture macros list*
%AMRoundRect*
0 Rectangle with rounded corners*
0 $1 Rounding radius*
0 $2 $3 $4 $5 $6 $7 $8 $9 X,Y pos of 4 corners*
0 Add a 4 corners polygon primitive as box body*
4,1,4,$2,$3,$4,$5,$6,$7,$8,$9,$2,$3,0*
0 Add four circle primitives for the rounded corners*
1,1,$1+$1,$2,$3*
1,1,$1+$1,$4,$5*
1,1,$1+$1,$6,$7*
1,1,$1+$1,$8,$9*
0 Add four rect primitives between the rounded corners*
20,1,$1+$1,$2,$3,$4,$5,0*
20,1,$1+$1,$4,$5,$6,$7,0*
20,1,$1+$1,$6,$7,$8,$9,0*
20,1,$1+$1,$8,$9,$2,$3,0*%
G04 Aperture macros list end*
%ADD10R,1.320800X1.320800*%
%ADD11C,1.320800*%
%ADD12R,1.574800X1.574800*%
%ADD13C,1.574800*%
%ADD14RoundRect,0.177600X0.194400X-0.224400X0.194400X0.224400X-0.194400X0.224400X-0.194400X-0.224400X0*%
%ADD15RoundRect,0.102000X-0.900000X-0.900000X0.900000X-0.900000X0.900000X0.900000X-0.900000X0.900000X0*%
%ADD16C,2.004000*%
%ADD17C,3.704000*%
%ADD18R,1.524000X1.524000*%
%ADD19C,1.524000*%
%ADD20RoundRect,0.102000X1.125000X-1.125000X1.125000X1.125000X-1.125000X1.125000X-1.125000X-1.125000X0*%
%ADD21C,2.454000*%
%ADD22R,1.161999X2.990799*%
%ADD23RoundRect,0.177600X-0.224400X-0.194400X0.224400X-0.194400X0.224400X0.194400X-0.224400X0.194400X0*%
%ADD24R,0.939800X0.606400*%
%ADD25R,1.397000X1.397000*%
%ADD26C,1.397000*%
%ADD27R,2.500000X2.500000*%
%ADD28C,2.500000*%
%ADD29R,1.371600X1.371600*%
%ADD30C,1.371600*%
%ADD31C,1.512000*%
%ADD32R,1.397000X0.809600*%
%ADD33RoundRect,0.142000X0.160000X-0.555000X0.160000X0.555000X-0.160000X0.555000X-0.160000X-0.555000X0*%
%ADD34R,0.555600X0.558800*%
%ADD35RoundRect,0.151600X-0.260400X0.605400X-0.260400X-0.605400X0.260400X-0.605400X0.260400X0.605400X0*%
%ADD36C,1.270000*%
%ADD37R,0.850000X0.850000*%
%ADD38O,0.850000X0.850000*%
%ADD39C,1.500000*%
%ADD40C,3.915000*%
%ADD41R,1.500000X1.000000*%
%ADD42R,2.000000X2.000000*%
%ADD43O,2.000000X2.000000*%
%ADD44RoundRect,0.177600X0.224400X0.194400X-0.224400X0.194400X-0.224400X-0.194400X0.224400X-0.194400X0*%
%ADD45R,0.809600X1.397000*%
%ADD46R,1.300000X1.600000*%
%ADD47R,2.000000X1.600000*%
%ADD48R,1.600000X1.300000*%
%ADD49R,1.600000X2.000000*%
%ADD50R,1.500000X2.000000*%
%ADD51R,3.800000X2.000000*%
%ADD52R,1.473200X1.473200*%
%ADD53C,1.473200*%
%ADD54R,1.370000X3.400001*%
%ADD55R,1.500000X0.900000*%
%ADD56R,0.900000X1.500000*%
%ADD57RoundRect,0.102000X0.654000X0.654000X-0.654000X0.654000X-0.654000X-0.654000X0.654000X-0.654000X0*%
%ADD58R,1.270000X1.270000*%
%ADD59R,2.990799X1.161999*%
%ADD60R,2.000000X1.905000*%
%ADD61O,2.000000X1.905000*%
G04 APERTURE END LIST*
D10*
%TO.C,C8*%
X92710000Y-123190000D03*
D11*
X92710000Y-118110000D03*
%TD*%
D12*
%TO.C,C9*%
X82550000Y-110490000D03*
D13*
X67549999Y-110490000D03*
%TD*%
D14*
%TO.C,C13*%
X169078811Y-102235000D03*
X169938811Y-102235000D03*
%TD*%
D15*
%TO.C,DS1*%
X148570000Y-23800000D03*
D16*
X146030000Y-23800000D03*
X143490000Y-23800000D03*
X140950000Y-23800000D03*
X138410000Y-23800000D03*
X135870000Y-23800000D03*
X133330000Y-23800000D03*
X130790000Y-23800000D03*
X128250000Y-23800000D03*
X125710000Y-23800000D03*
X123170000Y-23800000D03*
X120630000Y-23800000D03*
X118090000Y-23800000D03*
X115550000Y-23800000D03*
X113010000Y-23800000D03*
X110470000Y-23800000D03*
X107930000Y-23800000D03*
X105390000Y-23800000D03*
X102850000Y-23800000D03*
X100310000Y-23800000D03*
D17*
X78740000Y-25300000D03*
X170140000Y-25300000D03*
X170140000Y-50800000D03*
X78740000Y-50800000D03*
%TD*%
D18*
%TO.C,R7*%
X68580000Y-153240740D03*
D19*
X68580000Y-131239260D03*
%TD*%
D20*
%TO.C,PS1*%
X21330000Y-167640000D03*
D21*
X41650000Y-167640000D03*
X31490000Y-121920000D03*
X21330000Y-121920000D03*
X21330000Y-162770000D03*
X21330000Y-160230000D03*
%TD*%
D22*
%TO.C,C11*%
X147955000Y-79646501D03*
X147955000Y-85453499D03*
%TD*%
D23*
%TO.C,C12*%
X144743811Y-96232389D03*
X144743811Y-97092389D03*
%TD*%
D24*
%TO.C,R20*%
X153633811Y-62280089D03*
X153633811Y-60784689D03*
%TD*%
D23*
%TO.C,C16*%
X129503811Y-110837389D03*
X129503811Y-111697389D03*
%TD*%
D25*
%TO.C,R21*%
X136443091Y-76772389D03*
D26*
X147964531Y-76772389D03*
%TD*%
D27*
%TO.C,J1*%
X53420000Y-182880000D03*
D28*
X58420000Y-182880000D03*
%TD*%
D29*
%TO.C,R13*%
X87630000Y-123812300D03*
D30*
X87630000Y-112407700D03*
%TD*%
D31*
%TO.C,U6*%
X158205811Y-59754389D03*
X158205811Y-63310389D03*
X161761811Y-63310389D03*
%TD*%
D32*
%TO.C,R29*%
X137758811Y-125490300D03*
X137758811Y-123740900D03*
%TD*%
%TO.C,R34*%
X145378811Y-120192089D03*
X145378811Y-118442689D03*
%TD*%
D10*
%TO.C,C7*%
X100330000Y-118110000D03*
D11*
X100330000Y-123190000D03*
%TD*%
D29*
%TO.C,R32*%
X127598811Y-142164689D03*
D30*
X127598811Y-130760089D03*
%TD*%
D25*
%TO.C,R28*%
X158078811Y-92058109D03*
D26*
X158078811Y-80536669D03*
%TD*%
D33*
%TO.C,U5*%
X95250000Y-102870000D03*
X95900000Y-102870000D03*
X96550000Y-102870000D03*
X96550000Y-100950000D03*
X95250000Y-100950000D03*
%TD*%
D18*
%TO.C,C1*%
X27863800Y-91440000D03*
D19*
X22860000Y-91440000D03*
%TD*%
D18*
%TO.C,R33*%
X139343812Y-150432389D03*
D19*
X124743810Y-150432389D03*
%TD*%
D18*
%TO.C,C17*%
X121248811Y-115431189D03*
D19*
X121248811Y-110427389D03*
%TD*%
D29*
%TO.C,C18*%
X121248811Y-121882789D03*
D30*
X121248811Y-150483189D03*
%TD*%
D14*
%TO.C,C10*%
X159553811Y-67882389D03*
X160413811Y-67882389D03*
%TD*%
D12*
%TO.C,C3*%
X20795600Y-53340000D03*
D13*
X35795601Y-53340000D03*
%TD*%
D12*
%TO.C,C6*%
X100647500Y-101066600D03*
D13*
X110172500Y-104673400D03*
%TD*%
D34*
%TO.C,R14*%
X105410000Y-107950000D03*
X106346600Y-107950000D03*
%TD*%
D35*
%TO.C,U7*%
X144108811Y-102597389D03*
X142838811Y-102597389D03*
X141568811Y-102597389D03*
X140298811Y-102597389D03*
X139028811Y-102597389D03*
X137758811Y-102597389D03*
X136488811Y-102597389D03*
X135218811Y-102597389D03*
X135218811Y-108097389D03*
X136488811Y-108097389D03*
X137758811Y-108097389D03*
X139028811Y-108097389D03*
X140298811Y-108097389D03*
X141568811Y-108097389D03*
X142838811Y-108097389D03*
X144108811Y-108097389D03*
%TD*%
D36*
%TO.C,U3*%
X86360000Y-146050000D03*
X83820000Y-146050000D03*
X81280000Y-146050000D03*
X81280000Y-153670000D03*
X83820000Y-153670000D03*
X86360000Y-153670000D03*
%TD*%
D37*
%TO.C,J3*%
X68215000Y-24870000D03*
D38*
X69215000Y-24870000D03*
X70215000Y-24870000D03*
%TD*%
D39*
%TO.C,SW2*%
X77520431Y-81160000D03*
X82520431Y-81160000D03*
X80020431Y-81160000D03*
D40*
X74320431Y-73660000D03*
X85720431Y-73660000D03*
D39*
X77520431Y-66660000D03*
X82520431Y-66660000D03*
%TD*%
D41*
%TO.C,JP1*%
X147283811Y-101477389D03*
X147283811Y-102777389D03*
X147283811Y-104077389D03*
%TD*%
D18*
%TO.C,C2*%
X27863800Y-66040000D03*
D19*
X22860000Y-66040000D03*
%TD*%
D25*
%TO.C,R11*%
X76860431Y-84998560D03*
D26*
X76860431Y-96520000D03*
%TD*%
D32*
%TO.C,R17*%
X92710000Y-101120600D03*
X92710000Y-102870000D03*
%TD*%
D12*
%TO.C,C5*%
X35560000Y-27940000D03*
D13*
X20559999Y-27940000D03*
%TD*%
D42*
%TO.C,D2*%
X55880000Y-144780000D03*
D43*
X60960000Y-144780000D03*
X60960000Y-139700000D03*
X55880000Y-139700000D03*
%TD*%
D25*
%TO.C,R8*%
X86360000Y-142711170D03*
D26*
X86360000Y-131608830D03*
%TD*%
D44*
%TO.C,C19*%
X141568811Y-150862389D03*
X141568811Y-150002389D03*
%TD*%
D27*
%TO.C,J2*%
X76200000Y-182880000D03*
D28*
X81200000Y-182880000D03*
%TD*%
D25*
%TO.C,R3*%
X50800000Y-137919460D03*
D26*
X50800000Y-151640540D03*
%TD*%
D29*
%TO.C,C20*%
X154268811Y-98997389D03*
D30*
X154268811Y-127597789D03*
%TD*%
D25*
%TO.C,R10*%
X61620431Y-97080720D03*
D26*
X61620431Y-85559280D03*
%TD*%
D32*
%TO.C,R25*%
X133313811Y-117630600D03*
X133313811Y-119380000D03*
%TD*%
D45*
%TO.C,R19*%
X90960600Y-110490000D03*
X92710000Y-110490000D03*
%TD*%
D46*
%TO.C,RV1*%
X139863811Y-120112389D03*
D47*
X141113811Y-117212389D03*
D46*
X142363811Y-120112389D03*
%TD*%
D25*
%TO.C,R2*%
X40640000Y-66040000D03*
D26*
X40640000Y-54518560D03*
%TD*%
D24*
%TO.C,R24*%
X147918811Y-124510089D03*
X147918811Y-123014689D03*
%TD*%
D18*
%TO.C,R18*%
X94299999Y-58420000D03*
D19*
X108900001Y-58420000D03*
%TD*%
D48*
%TO.C,RV2*%
X145198811Y-90762389D03*
D49*
X148098811Y-92012389D03*
D48*
X145198811Y-93262389D03*
%TD*%
D25*
%TO.C,R23*%
X147195540Y-129540000D03*
D26*
X133474460Y-129540000D03*
%TD*%
D32*
%TO.C,R31*%
X132043811Y-111937089D03*
X132043811Y-110187689D03*
%TD*%
D39*
%TO.C,SW1*%
X56540431Y-81160000D03*
X61540431Y-81160000D03*
X59040431Y-81160000D03*
D40*
X53340431Y-73660000D03*
X64740431Y-73660000D03*
D39*
X56540431Y-66660000D03*
X61540431Y-66660000D03*
%TD*%
D29*
%TO.C,R1*%
X27940000Y-112382300D03*
D30*
X27940000Y-100977700D03*
%TD*%
D50*
%TO.C,U1*%
X23100000Y-81890000D03*
X25400000Y-81890000D03*
D51*
X25400000Y-75590000D03*
D50*
X27700000Y-81890000D03*
%TD*%
D52*
%TO.C,D1*%
X22860000Y-101600000D03*
D53*
X25400000Y-101600000D03*
%TD*%
D24*
%TO.C,R30*%
X160020000Y-103617700D03*
X160020000Y-102122300D03*
%TD*%
D25*
%TO.C,R5*%
X43860720Y-114300000D03*
D26*
X32339280Y-114300000D03*
%TD*%
D18*
%TO.C,R22*%
X121883811Y-103648129D03*
D19*
X121883811Y-81646649D03*
%TD*%
D18*
%TO.C,C21*%
X133985000Y-88900000D03*
D19*
X138988800Y-88900000D03*
%TD*%
D54*
%TO.C,C14*%
X163035000Y-103442389D03*
X167165000Y-103442389D03*
%TD*%
D55*
%TO.C,U2*%
X46000000Y-21230000D03*
X46000000Y-22500000D03*
X46000000Y-23770000D03*
X46000000Y-25040000D03*
X46000000Y-26310000D03*
X46000000Y-27580000D03*
X46000000Y-28850000D03*
X46000000Y-30120000D03*
X46000000Y-31390000D03*
X46000000Y-32660000D03*
X46000000Y-33930000D03*
X46000000Y-35200000D03*
X46000000Y-36470000D03*
X46000000Y-37740000D03*
D56*
X49040000Y-38990000D03*
X50310000Y-38990000D03*
X51580000Y-38990000D03*
X52850000Y-38990000D03*
X54120000Y-38990000D03*
X55390000Y-38990000D03*
X56660000Y-38990000D03*
X57930000Y-38990000D03*
X59200000Y-38990000D03*
X60470000Y-38990000D03*
D55*
X63500000Y-37740000D03*
X63500000Y-36470000D03*
X63500000Y-35200000D03*
X63500000Y-33930000D03*
X63500000Y-32660000D03*
X63500000Y-31390000D03*
X63500000Y-30120000D03*
X63500000Y-28850000D03*
X63500000Y-27580000D03*
X63500000Y-26310000D03*
X63500000Y-25040000D03*
X63500000Y-23770000D03*
X63500000Y-22500000D03*
X63500000Y-21230000D03*
%TD*%
D29*
%TO.C,R16*%
X87630000Y-107950000D03*
D30*
X87630000Y-96545400D03*
%TD*%
D25*
%TO.C,R12*%
X84480431Y-96520000D03*
D26*
X84480431Y-84998560D03*
%TD*%
D57*
%TO.C,U4*%
X62230000Y-132080000D03*
D31*
X62230000Y-129540000D03*
X62230000Y-127000000D03*
X54610000Y-127000000D03*
X54610000Y-129540000D03*
X54610000Y-132080000D03*
%TD*%
D25*
%TO.C,R4*%
X58420000Y-167640000D03*
D26*
X58420000Y-153918920D03*
%TD*%
D25*
%TO.C,R15*%
X105410000Y-112349280D03*
D26*
X105410000Y-123870720D03*
%TD*%
D58*
%TO.C,R26*%
X133313811Y-121883500D03*
D36*
X133313811Y-125287100D03*
%TD*%
D45*
%TO.C,R27*%
X138825300Y-97155000D03*
X140574700Y-97155000D03*
%TD*%
D59*
%TO.C,C15*%
X161525312Y-97092389D03*
X167332310Y-97092389D03*
%TD*%
D25*
%TO.C,R9*%
X56540431Y-85559280D03*
D26*
X56540431Y-97080720D03*
%TD*%
D25*
%TO.C,R6*%
X86360000Y-159548830D03*
D26*
X86360000Y-170651170D03*
%TD*%
D60*
%TO.C,Q1*%
X81280000Y-172720000D03*
D61*
X81280000Y-170180000D03*
X81280000Y-167640000D03*
%TD*%
D18*
%TO.C,C4*%
X27940000Y-40640000D03*
D19*
X22936200Y-40640000D03*
%TD*%
M02*
