%TF.GenerationSoftware,KiCad,Pcbnew,7.0.5*%
%TF.CreationDate,2024-01-26T21:50:59+01:00*%
%TF.ProjectId,Project,50726f6a-6563-4742-9e6b-696361645f70,rev?*%
%TF.SameCoordinates,Original*%
%TF.FileFunction,Paste,Top*%
%TF.FilePolarity,Positive*%
%FSLAX46Y46*%
G04 Gerber Fmt 4.6, Leading zero omitted, Abs format (unit mm)*
G04 Created by KiCad (PCBNEW 7.0.5) date 2024-01-26 21:50:59*
%MOMM*%
%LPD*%
G01*
G04 APERTURE LIST*
G04 Aperture macros list*
%AMRoundRect*
0 Rectangle with rounded corners*
0 $1 Rounding radius*
0 $2 $3 $4 $5 $6 $7 $8 $9 X,Y pos of 4 corners*
0 Add a 4 corners polygon primitive as box body*
4,1,4,$2,$3,$4,$5,$6,$7,$8,$9,$2,$3,0*
0 Add four circle primitives for the rounded corners*
1,1,$1+$1,$2,$3*
1,1,$1+$1,$4,$5*
1,1,$1+$1,$6,$7*
1,1,$1+$1,$8,$9*
0 Add four rect primitives between the rounded corners*
20,1,$1+$1,$2,$3,$4,$5,0*
20,1,$1+$1,$4,$5,$6,$7,0*
20,1,$1+$1,$6,$7,$8,$9,0*
20,1,$1+$1,$8,$9,$2,$3,0*%
G04 Aperture macros list end*
%ADD10RoundRect,0.075600X0.194400X-0.224400X0.194400X0.224400X-0.194400X0.224400X-0.194400X-0.224400X0*%
%ADD11R,1.161999X2.990799*%
%ADD12RoundRect,0.075600X-0.224400X-0.194400X0.224400X-0.194400X0.224400X0.194400X-0.224400X0.194400X0*%
%ADD13R,0.939800X0.606400*%
%ADD14R,1.397000X0.809600*%
%ADD15RoundRect,0.040000X0.160000X-0.555000X0.160000X0.555000X-0.160000X0.555000X-0.160000X-0.555000X0*%
%ADD16R,0.555600X0.558800*%
%ADD17RoundRect,0.049600X-0.260400X0.605400X-0.260400X-0.605400X0.260400X-0.605400X0.260400X0.605400X0*%
%ADD18RoundRect,0.075600X0.224400X0.194400X-0.224400X0.194400X-0.224400X-0.194400X0.224400X-0.194400X0*%
%ADD19R,0.809600X1.397000*%
%ADD20R,1.300000X1.600000*%
%ADD21R,2.000000X1.600000*%
%ADD22R,1.600000X1.300000*%
%ADD23R,1.600000X2.000000*%
%ADD24R,1.500000X2.000000*%
%ADD25R,3.800000X2.000000*%
%ADD26R,1.370000X3.400001*%
%ADD27R,1.500000X0.900000*%
%ADD28R,0.900000X1.500000*%
%ADD29R,2.990799X1.161999*%
G04 APERTURE END LIST*
D10*
%TO.C,C13*%
X169078811Y-102235000D03*
X169938811Y-102235000D03*
%TD*%
D11*
%TO.C,C11*%
X147955000Y-79646501D03*
X147955000Y-85453499D03*
%TD*%
D12*
%TO.C,C12*%
X144743811Y-96232389D03*
X144743811Y-97092389D03*
%TD*%
D13*
%TO.C,R20*%
X153633811Y-62280089D03*
X153633811Y-60784689D03*
%TD*%
D12*
%TO.C,C16*%
X129503811Y-110837389D03*
X129503811Y-111697389D03*
%TD*%
D14*
%TO.C,R29*%
X137758811Y-125490300D03*
X137758811Y-123740900D03*
%TD*%
%TO.C,R34*%
X145378811Y-120192089D03*
X145378811Y-118442689D03*
%TD*%
D15*
%TO.C,U5*%
X95250000Y-102870000D03*
X95900000Y-102870000D03*
X96550000Y-102870000D03*
X96550000Y-100950000D03*
X95250000Y-100950000D03*
%TD*%
D10*
%TO.C,C10*%
X159553811Y-67882389D03*
X160413811Y-67882389D03*
%TD*%
D16*
%TO.C,R14*%
X105410000Y-107950000D03*
X106346600Y-107950000D03*
%TD*%
D17*
%TO.C,U7*%
X144108811Y-102597389D03*
X142838811Y-102597389D03*
X141568811Y-102597389D03*
X140298811Y-102597389D03*
X139028811Y-102597389D03*
X137758811Y-102597389D03*
X136488811Y-102597389D03*
X135218811Y-102597389D03*
X135218811Y-108097389D03*
X136488811Y-108097389D03*
X137758811Y-108097389D03*
X139028811Y-108097389D03*
X140298811Y-108097389D03*
X141568811Y-108097389D03*
X142838811Y-108097389D03*
X144108811Y-108097389D03*
%TD*%
D14*
%TO.C,R17*%
X92710000Y-101120600D03*
X92710000Y-102870000D03*
%TD*%
D18*
%TO.C,C19*%
X141568811Y-150862389D03*
X141568811Y-150002389D03*
%TD*%
D14*
%TO.C,R25*%
X133313811Y-117630600D03*
X133313811Y-119380000D03*
%TD*%
D19*
%TO.C,R19*%
X90960600Y-110490000D03*
X92710000Y-110490000D03*
%TD*%
D20*
%TO.C,RV1*%
X139863811Y-120112389D03*
D21*
X141113811Y-117212389D03*
D20*
X142363811Y-120112389D03*
%TD*%
D13*
%TO.C,R24*%
X147918811Y-124510089D03*
X147918811Y-123014689D03*
%TD*%
D22*
%TO.C,RV2*%
X145198811Y-90762389D03*
D23*
X148098811Y-92012389D03*
D22*
X145198811Y-93262389D03*
%TD*%
D14*
%TO.C,R31*%
X132043811Y-111937089D03*
X132043811Y-110187689D03*
%TD*%
D24*
%TO.C,U1*%
X23100000Y-81890000D03*
X25400000Y-81890000D03*
D25*
X25400000Y-75590000D03*
D24*
X27700000Y-81890000D03*
%TD*%
D13*
%TO.C,R30*%
X160020000Y-103617700D03*
X160020000Y-102122300D03*
%TD*%
D26*
%TO.C,C14*%
X163035000Y-103442389D03*
X167165000Y-103442389D03*
%TD*%
D27*
%TO.C,U2*%
X46000000Y-21230000D03*
X46000000Y-22500000D03*
X46000000Y-23770000D03*
X46000000Y-25040000D03*
X46000000Y-26310000D03*
X46000000Y-27580000D03*
X46000000Y-28850000D03*
X46000000Y-30120000D03*
X46000000Y-31390000D03*
X46000000Y-32660000D03*
X46000000Y-33930000D03*
X46000000Y-35200000D03*
X46000000Y-36470000D03*
X46000000Y-37740000D03*
D28*
X49040000Y-38990000D03*
X50310000Y-38990000D03*
X51580000Y-38990000D03*
X52850000Y-38990000D03*
X54120000Y-38990000D03*
X55390000Y-38990000D03*
X56660000Y-38990000D03*
X57930000Y-38990000D03*
X59200000Y-38990000D03*
X60470000Y-38990000D03*
D27*
X63500000Y-37740000D03*
X63500000Y-36470000D03*
X63500000Y-35200000D03*
X63500000Y-33930000D03*
X63500000Y-32660000D03*
X63500000Y-31390000D03*
X63500000Y-30120000D03*
X63500000Y-28850000D03*
X63500000Y-27580000D03*
X63500000Y-26310000D03*
X63500000Y-25040000D03*
X63500000Y-23770000D03*
X63500000Y-22500000D03*
X63500000Y-21230000D03*
%TD*%
D19*
%TO.C,R27*%
X138825300Y-97155000D03*
X140574700Y-97155000D03*
%TD*%
D29*
%TO.C,C15*%
X161525312Y-97092389D03*
X167332310Y-97092389D03*
%TD*%
M02*
