M48
; DRILL file {KiCad 7.0.5} date Fri Jan 26 21:51:25 2024
; FORMAT={-:-/ absolute / metric / decimal}
; #@! TF.CreationDate,2024-01-26T21:51:25+01:00
; #@! TF.GenerationSoftware,Kicad,Pcbnew,7.0.5
; #@! TF.FileFunction,Plated,1,2,PTH
FMAT,2
METRIC
; #@! TA.AperFunction,Plated,PTH,ViaDrill
T1C0.500
; #@! TA.AperFunction,Plated,PTH,ComponentDrill
T2C0.500
; #@! TA.AperFunction,Plated,PTH,ComponentDrill
T3C0.762
; #@! TA.AperFunction,Plated,PTH,ComponentDrill
T4C0.800
; #@! TA.AperFunction,Plated,PTH,ComponentDrill
T5C0.813
; #@! TA.AperFunction,Plated,PTH,ComponentDrill
T6C0.864
; #@! TA.AperFunction,Plated,PTH,ComponentDrill
T7C0.889
; #@! TA.AperFunction,Plated,PTH,ComponentDrill
T8C0.965
; #@! TA.AperFunction,Plated,PTH,ComponentDrill
T9C1.000
; #@! TA.AperFunction,Plated,PTH,ComponentDrill
T10C1.016
; #@! TA.AperFunction,Plated,PTH,ComponentDrill
T11C1.067
; #@! TA.AperFunction,Plated,PTH,ComponentDrill
T12C1.100
; #@! TA.AperFunction,Plated,PTH,ComponentDrill
T13C1.300
; #@! TA.AperFunction,Plated,PTH,ComponentDrill
T14C1.500
; #@! TA.AperFunction,Plated,PTH,ComponentDrill
T15C2.500
; #@! TA.AperFunction,Plated,PTH,ComponentDrill
T16C2.610
%
G90
G05
T1
X25.4Y-83.82
X25.4Y-121.92
X38.1Y-73.66
X53.34Y-110.49
X55.88Y-40.64
X57.15Y-40.64
X64.77Y-41.91
X67.31Y-35.56
X74.93Y-31.75
X86.36Y-129.54
X93.345Y-96.52
X93.345Y-96.52
X99.695Y-96.52
X99.695Y-96.52
X137.795Y-110.49
X142.204Y-97.092
X147.32Y-106.045
X149.189Y-123.127
X153.634Y-97.092
X159.349Y-69.787
T2
X68.215Y-24.87
X69.215Y-24.87
X70.215Y-24.87
T3
X81.28Y-146.05
X81.28Y-153.67
X83.82Y-146.05
X83.82Y-153.67
X86.36Y-146.05
X86.36Y-153.67
X133.314Y-121.883
X133.314Y-125.287
T4
X54.61Y-127.0
X54.61Y-129.54
X54.61Y-132.08
X62.23Y-127.0
X62.23Y-129.54
X62.23Y-132.08
X158.206Y-59.754
X158.206Y-63.31
X161.762Y-63.31
T5
X92.71Y-118.11
X92.71Y-123.19
X100.33Y-118.11
X100.33Y-123.19
T6
X27.94Y-100.978
X27.94Y-112.382
X87.63Y-96.545
X87.63Y-107.95
X87.63Y-112.408
X87.63Y-123.812
X121.249Y-121.883
X121.249Y-150.483
X127.599Y-130.76
X127.599Y-142.165
X154.269Y-98.997
X154.269Y-127.598
T7
X32.339Y-114.3
X40.64Y-54.519
X40.64Y-66.04
X43.861Y-114.3
X50.8Y-137.919
X50.8Y-151.641
X56.54Y-85.559
X56.54Y-97.081
X58.42Y-153.919
X58.42Y-167.64
X61.62Y-85.559
X61.62Y-97.081
X76.86Y-84.999
X76.86Y-96.52
X84.48Y-84.999
X84.48Y-96.52
X86.36Y-131.609
X86.36Y-142.711
X86.36Y-159.549
X86.36Y-170.651
X105.41Y-112.349
X105.41Y-123.871
X133.474Y-129.54
X136.443Y-76.772
X147.196Y-129.54
X147.965Y-76.772
X158.079Y-80.537
X158.079Y-92.058
T8
X22.86Y-66.04
X22.86Y-91.44
X22.86Y-101.6
X22.936Y-40.64
X25.4Y-101.6
X27.864Y-66.04
X27.864Y-91.44
X27.94Y-40.64
X121.249Y-110.427
X121.249Y-115.431
X133.985Y-88.9
X138.989Y-88.9
T9
X55.88Y-139.7
X55.88Y-144.78
X56.54Y-66.66
X56.54Y-81.16
X59.04Y-81.16
X60.96Y-139.7
X60.96Y-144.78
X61.54Y-66.66
X61.54Y-81.16
X77.52Y-66.66
X77.52Y-81.16
X80.02Y-81.16
X82.52Y-66.66
X82.52Y-81.16
X100.31Y-23.8
X102.85Y-23.8
X105.39Y-23.8
X107.93Y-23.8
X110.47Y-23.8
X113.01Y-23.8
X115.55Y-23.8
X118.09Y-23.8
X120.63Y-23.8
X123.17Y-23.8
X125.71Y-23.8
X128.25Y-23.8
X130.79Y-23.8
X133.33Y-23.8
X135.87Y-23.8
X138.41Y-23.8
X140.95Y-23.8
X143.49Y-23.8
X146.03Y-23.8
X148.57Y-23.8
T10
X68.58Y-131.239
X68.58Y-153.241
X94.3Y-58.42
X108.9Y-58.42
X121.884Y-81.647
X121.884Y-103.648
X124.744Y-150.432
X139.344Y-150.432
T11
X20.56Y-27.94
X20.796Y-53.34
X35.56Y-27.94
X35.796Y-53.34
X67.55Y-110.49
X82.55Y-110.49
X100.647Y-101.067
X110.172Y-104.673
T12
X81.28Y-167.64
X81.28Y-170.18
X81.28Y-172.72
T13
X53.42Y-182.88
X58.42Y-182.88
X76.2Y-182.88
X81.2Y-182.88
T14
X21.33Y-121.92
X21.33Y-160.23
X21.33Y-162.77
X21.33Y-167.64
X31.49Y-121.92
X41.65Y-167.64
T15
X78.74Y-25.3
X78.74Y-50.8
X170.14Y-25.3
X170.14Y-50.8
T16
X53.34Y-73.66
X64.74Y-73.66
X74.32Y-73.66
X85.72Y-73.66
T0
M30
